<svg width="33" height="33" viewBox="0 0 33 33" fill="none" xmlns="http://www.w3.org/2000/svg">
<g clip-path="url(#clip0_123_4)">
<path d="M19.2378 19.994L21.0055 18.2262L28.5186 25.7391L26.7509 27.5069L19.2378 19.994Z" fill="#616161"/>
<path d="M13.5 2.50012C10.8478 2.50012 8.3043 3.55369 6.42893 5.42905C4.55357 7.30442 3.5 9.84796 3.5 12.5001C3.5 15.1523 4.55357 17.6958 6.42893 19.5712C8.3043 21.4466 10.8478 22.5001 13.5 22.5001C16.1522 22.5001 18.6957 21.4466 20.5711 19.5712C22.4464 17.6958 23.5 15.1523 23.5 12.5001C23.5 9.84796 22.4464 7.30442 20.5711 5.42905C18.6957 3.55369 16.1522 2.50012 13.5 2.50012Z" fill="#616161"/>
<path d="M21.2849 22.0881L23.0526 20.3203L28.4886 25.7561L26.7209 27.5239L21.2849 22.0881Z" fill="#37474F"/>
<path d="M13.5 4.37512C11.3451 4.37512 9.27849 5.23115 7.75476 6.75488C6.23102 8.27861 5.375 10.3452 5.375 12.5001C5.375 14.655 6.23102 16.7216 7.75476 18.2454C9.27849 19.7691 11.3451 20.6251 13.5 20.6251C15.6549 20.6251 17.7215 19.7691 19.2452 18.2454C20.769 16.7216 21.625 14.655 21.625 12.5001C21.625 10.3452 20.769 8.27861 19.2452 6.75488C17.7215 5.23115 15.6549 4.37512 13.5 4.37512Z" fill="#64B5F6"/>
<path d="M17.8125 8.87512C16.75 7.62512 15.1875 6.87512 13.5 6.87512C11.8125 6.87512 10.25 7.62512 9.1875 8.87512C8.9375 9.12512 9 9.56262 9.25 9.75012C9.5 10.0001 9.9375 9.93762 10.125 9.68762C11 8.68762 12.1875 8.12512 13.5 8.12512C14.8125 8.12512 16 8.68762 16.875 9.68762C17 9.81262 17.1875 9.93762 17.375 9.93762C17.5 9.93762 17.6875 9.87512 17.75 9.81262C18 9.56262 18 9.12512 17.8125 8.87512Z" fill="#BBDEFB"/>
</g>
<defs>
<clipPath id="clip0_123_4">
<rect width="31.7347" height="31.7347" fill="white" transform="translate(0.783936 0.411255)"/>
</clipPath>
</defs>
</svg>
